<?xml version="1.0" encoding="UTF-8" standalone="no"?>
<svg
   xmlns:dc="http://purl.org/dc/elements/1.1/"
   xmlns:cc="http://creativecommons.org/ns#"
   xmlns:rdf="http://www.w3.org/1999/02/22-rdf-syntax-ns#"
   xmlns:svg="http://www.w3.org/2000/svg"
   xmlns="http://www.w3.org/2000/svg"
   xmlns:sodipodi="http://sodipodi.sourceforge.net/DTD/sodipodi-0.dtd"
   xmlns:inkscape="http://www.inkscape.org/namespaces/inkscape"
   id="svg4306"
   width="22"
   height="22"
   version="1.1"
   style="enable-background:new"
   sodipodi:docname="close.svg"
   inkscape:version="0.92.2 2405546, 2018-03-11">
  <metadata
     id="metadata31">
    <rdf:RDF>
      <cc:Work
         rdf:about="">
        <dc:format>image/svg+xml</dc:format>
        <dc:type
           rdf:resource="http://purl.org/dc/dcmitype/StillImage" />
        <dc:title />
      </cc:Work>
    </rdf:RDF>
  </metadata>
  <defs
     id="defs29" />
  <sodipodi:namedview
     pagecolor="#ffffff"
     bordercolor="#666666"
     borderopacity="1"
     objecttolerance="10"
     gridtolerance="10"
     guidetolerance="10"
     inkscape:pageopacity="0.50196078"
     inkscape:pageshadow="2"
     inkscape:window-width="2160"
     inkscape:window-height="1277"
     id="namedview27"
     showgrid="false"
     inkscape:zoom="12.912281"
     inkscape:cx="57.327935"
     inkscape:cy="23.391304"
     inkscape:window-x="0"
     inkscape:window-y="40"
     inkscape:window-maximized="1"
     inkscape:current-layer="svg4306"
     inkscape:pagecheckerboard="true" />
  <g
     id="active-center">
    <rect
       y="2.220446e-16"
       x="0"
       height="22"
       width="22"
       id="rect4249"
       style="opacity:0;fill:#d02020;fill-opacity:0.75294118;stroke:none;stroke-width:0.99999994;stroke-opacity:0.98823529" />
    <rect
       style="fill:#d02020;fill-opacity:0.75294118;stroke:none;stroke-width:0.97700834;stroke-opacity:0.98823529"
       id="rect838"
       width="22"
       height="21"
       x="0"
       y="-1.3322676e-15" />
    <path
       id="path10839-9"
       d="m 8.0023583,8.0001754 h 0.7497051 c 0.00777,-9e-5 0.015586,-3.45e-4 0.023428,0 0.1911381,0.0084 0.3822522,0.096432 0.5154223,0.2343681 L 11.001179,9.945431 12.734872,8.2345435 C 12.934013,8.0616736 13.069745,8.0054252 13.250295,8.0001754 H 14 v 0.749978 c 0,0.2148463 -0.02575,0.4129755 -0.187426,0.5624836 l -1.710265,1.710887 1.686836,1.687451 C 13.930231,12.852099 13.999994,13.051053 14,13.250022 V 14 h -0.749705 c -0.198898,-7e-6 -0.397783,-0.06982 -0.538851,-0.210931 L 11.001179,12.078181 9.290914,13.789069 C 9.1498465,13.930207 8.9509527,14 8.7520634,14 H 8.0023583 v -0.749978 c -2.3e-6,-0.198962 0.069768,-0.397923 0.2108545,-0.539047 L 9.9234781,11.023524 8.2132128,9.312637 C 8.0552185,9.1666688 7.9859322,8.9607098 8.0023583,8.7501534 Z"
       style="color:#bebebe;font-style:normal;font-variant:normal;font-weight:normal;font-stretch:normal;font-size:medium;line-height:normal;font-family:'Andale Mono';-inkscape-font-specification:'Andale Mono';text-indent:0;text-align:start;text-decoration:none;text-decoration-line:none;letter-spacing:normal;word-spacing:normal;text-transform:none;writing-mode:lr-tb;direction:ltr;text-anchor:start;display:inline;overflow:visible;visibility:visible;fill:#fcfcfc;fill-opacity:0.98823529;fill-rule:nonzero;stroke:none;stroke-width:1.33565521;marker:none;enable-background:new"
       inkscape:connector-curvature="0" />
  </g>
  <g
     id="pressed-center"
     style="fill:#ff0000">
    <rect
       y="0"
       x="46"
       height="22"
       width="22"
       id="rect4253"
       style="opacity:0;fill:#808080;fill-opacity:0.50196078;stroke:none;stroke-width:0.99999994;stroke-opacity:0.98823529;enable-background:new" />
    <rect
       style="fill:#808080;fill-opacity:0.50196078;stroke:none;stroke-width:0.97700834;stroke-opacity:0.98823529;enable-background:new"
       id="rect838-36"
       width="22"
       height="21"
       x="46"
       y="-1.3322676e-15" />
    <path
       id="path4221"
       d="m 53.003145,7.0002283 h 0.999607 c 0.01037,-1.2e-4 0.02078,-4.6e-4 0.03124,0 0.25485,0.0112 0.509669,0.1285762 0.687229,0.3124908 l 2.280354,2.2811834 2.311591,-2.2811834 c 0.26552,-0.2304932 0.446496,-0.305491 0.68723,-0.3124908 H 61 V 8.000199 c 0,0.2864617 -0.03433,0.550634 -0.249901,0.7499781 l -2.280354,2.2811829 2.249116,2.249935 C 60.906975,13.469459 60.999992,13.734731 61,14.000024 v 0.99997 h -0.999606 c -0.265197,-10e-6 -0.530378,-0.0931 -0.718468,-0.281241 l -2.280353,-2.281184 -2.280354,2.281184 c -0.18809,0.188184 -0.453281,0.281241 -0.718467,0.281241 h -0.999607 v -0.99997 c -3e-6,-0.265283 0.09302,-0.530565 0.281139,-0.718729 L 55.564638,11.03136 53.284284,8.7501771 C 53.073625,8.5555528 52.981243,8.2809408 53.003145,8.000199 Z"
       style="color:#bebebe;font-style:normal;font-variant:normal;font-weight:normal;font-stretch:normal;font-size:medium;line-height:normal;font-family:'Andale Mono';-inkscape-font-specification:'Andale Mono';text-indent:0;text-align:start;text-decoration:none;text-decoration-line:none;letter-spacing:normal;word-spacing:normal;text-transform:none;writing-mode:lr-tb;direction:ltr;text-anchor:start;display:inline;overflow:visible;visibility:visible;fill:#fcfcfc;fill-opacity:0.98823529;fill-rule:nonzero;stroke:none;stroke-width:1.78087378;marker:none;enable-background:new"
       inkscape:connector-curvature="0" />
  </g>
  <g
     id="inactive-center"
     transform="translate(69)">
    <rect
       id="rect4225"
       width="22"
       height="22"
       x="0"
       y="0"
       style="opacity:1;fill:#fcfcfc;fill-opacity:0;fill-rule:nonzero;stroke:none;stroke-width:1.99999988;stroke-linecap:round;stroke-linejoin:round;stroke-miterlimit:4;stroke-dasharray:none;stroke-opacity:1" />
    <path
       id="path4231"
       d="M 8.0023583,8.0001754 H 8.752064 c 0.00778,-9e-5 0.015585,-3.45e-4 0.02343,0 0.1911382,0.0084 0.3822525,0.096432 0.5154225,0.2343681 L 11.001179,9.945431 12.734872,8.2345435 C 12.934013,8.0616736 13.069745,8.0054252 13.250295,8.0001754 H 14 v 0.749978 c 0,0.2148463 -0.02575,0.4129755 -0.187427,0.5624836 l -1.710264,1.710887 1.686837,1.687451 C 13.930231,12.852099 13.999994,13.051053 14,13.250022 V 14 h -0.749705 c -0.198898,-7e-6 -0.397783,-0.06982 -0.538851,-0.210931 L 11.001179,12.078181 9.2909142,13.789069 C 9.1498467,13.930207 8.9509527,14 8.752064,14 H 8.0023583 v -0.749978 c -2.3e-6,-0.198962 0.069767,-0.397923 0.2108545,-0.539047 L 9.9234777,11.023524 8.2132128,9.312637 C 8.0552184,9.1666688 7.9859322,8.9607098 8.0023583,8.7501534 Z"
       style="color:#bebebe;font-style:normal;font-variant:normal;font-weight:normal;font-stretch:normal;font-size:medium;line-height:normal;font-family:'Andale Mono';-inkscape-font-specification:'Andale Mono';text-indent:0;text-align:start;text-decoration:none;text-decoration-line:none;letter-spacing:normal;word-spacing:normal;text-transform:none;writing-mode:lr-tb;direction:ltr;text-anchor:start;display:inline;overflow:visible;visibility:visible;opacity:1;fill:#808080;fill-opacity:0.50196078;fill-rule:nonzero;stroke:none;stroke-width:1.33565521;marker:none;enable-background:new"
       inkscape:connector-curvature="0" />
  </g>
  <g
     id="deactivated-center"
     transform="translate(92)">
    <rect
       id="rect4235"
       width="22"
       height="22"
       x="0"
       y="0"
       style="opacity:1;fill:#fcfcfc;fill-opacity:0;fill-rule:nonzero;stroke:none;stroke-width:1.99999988;stroke-linecap:round;stroke-linejoin:round;stroke-miterlimit:4;stroke-dasharray:none;stroke-opacity:1" />
    <path
       id="path4241"
       d="m 8.0023585,8.0001754 h 0.7497052 c 0.00778,-9e-5 0.015585,-3.45e-4 0.02343,0 0.1911383,0.0084 0.3822525,0.096432 0.5154225,0.2343681 L 11.00118,9.945431 12.734873,8.2345435 c 0.19914,-0.1728699 0.334872,-0.2291183 0.515422,-0.2343681 H 14 v 0.749978 c 0,0.2148463 -0.02575,0.4129755 -0.187426,0.5624836 l -1.710265,1.710887 1.686837,1.687451 C 13.930231,12.852099 13.999994,13.051053 14,13.250022 V 14 h -0.749705 c -0.198897,-7e-6 -0.397783,-0.06982 -0.53885,-0.210931 L 11.00118,12.078181 9.290914,13.789069 C 9.1498465,13.930207 8.9509525,14 8.7520637,14 H 8.0023585 v -0.749978 c -2.3e-6,-0.198962 0.069765,-0.397923 0.2108542,-0.539047 L 9.9234785,11.023524 8.2132127,9.312637 C 8.0552185,9.1666688 7.985932,8.9607098 8.0023585,8.7501534 Z"
       style="color:#bebebe;font-style:normal;font-variant:normal;font-weight:normal;font-stretch:normal;font-size:medium;line-height:normal;font-family:'Andale Mono';-inkscape-font-specification:'Andale Mono';text-indent:0;text-align:start;text-decoration:none;text-decoration-line:none;letter-spacing:normal;word-spacing:normal;text-transform:none;writing-mode:lr-tb;direction:ltr;text-anchor:start;display:inline;overflow:visible;visibility:visible;opacity:1;fill:#c0c0c0;fill-opacity:0.98823529;fill-rule:nonzero;stroke:none;stroke-width:1.33565521;marker:none;enable-background:new"
       inkscape:connector-curvature="0" />
  </g>
  <g
     id="hover-center">
    <rect
       y="0"
       x="23"
       height="22"
       width="22"
       id="rect4251"
       style="opacity:0;fill:#d02020;fill-opacity:0.98823529;stroke:none;stroke-width:0.99999994;stroke-opacity:0.98823529;enable-background:new" />
    <rect
       style="fill:#d02020;fill-opacity:0.98823529;stroke:none;stroke-width:0.97700834;stroke-opacity:0.98823529;enable-background:new"
       id="rect838-3"
       width="22"
       height="21"
       x="23"
       y="-1.3322676e-15" />
    <path
       style="color:#bebebe;font-style:normal;font-variant:normal;font-weight:normal;font-stretch:normal;font-size:medium;line-height:normal;font-family:'Andale Mono';-inkscape-font-specification:'Andale Mono';text-indent:0;text-align:start;text-decoration:none;text-decoration-line:none;letter-spacing:normal;word-spacing:normal;text-transform:none;writing-mode:lr-tb;direction:ltr;text-anchor:start;display:inline;overflow:visible;visibility:visible;fill:#fcfcfc;fill-opacity:0.98823529;fill-rule:nonzero;stroke:none;stroke-width:1.78089976;marker:none;enable-background:new"
       id="path4236"
       d="m 30.003145,7 h 0.999607 c 0.01037,-1.2e-4 0.02078,-4.6e-4 0.03124,0 0.254851,0.0112 0.50967,0.12858 0.68723,0.3125 L 34.001573,9.59375 36.313164,7.3125 C 36.578684,7.082 36.75966,7.007 37.000393,7 H 38 v 1 c 0,0.28647 -0.03433,0.55065 -0.249901,0.75 l -2.280354,2.28125 2.249116,2.25 C 37.906975,13.46942 37.999992,13.7347 38,14 v 1 h -0.999607 c -0.265196,-10e-6 -0.530377,-0.0931 -0.718467,-0.28125 L 34.001573,12.4375 31.721219,14.71875 C 31.533129,14.90694 31.267937,15 31.002752,15 h -0.999607 v -1 c -3e-6,-0.26529 0.09302,-0.53058 0.281139,-0.71875 l 2.280354,-2.25 L 30.284284,8.75 C 30.073625,8.55537 29.981243,8.28075 30.003145,8 Z"
       inkscape:connector-curvature="0" />
  </g>
</svg>
